<mxfile host="app.diagrams.net" modified="2024-04-18T07:07:59.122Z" agent="Mozilla/5.0 (Macintosh; Intel Mac OS X 10_15_7) AppleWebKit/537.36 (KHTML, like Gecko) Chrome/123.0.0.0 Safari/537.36" version="24.2.5" etag="ofUvEYUeK43M52HGVxBV" type="github">
  <diagram name="Page-1" id="fF7Won89ebqlfY-BWLBO">
    <mxGraphModel>
      <root>
        <mxCell id="0" />
        <mxCell id="1" parent="0" />
      </root>
    </mxGraphModel>
  </diagram>
</mxfile>
